<?xml version="1.0" encoding="UTF-8"?>
<svg id="Calque_2" data-name="Calque 2" xmlns="http://www.w3.org/2000/svg" xmlns:xlink="http://www.w3.org/1999/xlink" viewBox="0 0 429.93 102.5">
  <defs>
    <style>
      .cls-1 {
        fill: #fff;
      }

      .cls-2 {
        fill: url(#Dégradé_sans_nom_76);
      }

      .cls-3 {
        fill: url(#Dégradé_sans_nom_27);
      }

      .cls-4 {
        fill: url(#Dégradé_sans_nom_76-2);
      }

      .cls-5 {
        fill: url(#Dégradé_sans_nom_76-4);
      }

      .cls-6 {
        fill: url(#Dégradé_sans_nom_76-3);
      }

      .cls-7 {
        fill: url(#Dégradé_sans_nom_76-6);
      }

      .cls-8 {
        fill: url(#Dégradé_sans_nom_76-5);
      }

      .cls-9 {
        fill: url(#Dégradé_sans_nom_76-7);
      }

      .cls-10 {
        fill: url(#Dégradé_sans_nom_76-8);
      }

      .cls-11 {
        fill: url(#Dégradé_sans_nom_76-9);
      }
    </style>
    <linearGradient id="Dégradé_sans_nom_76" data-name="Dégradé sans nom 76" x1="136.68" y1="51.5" x2="439.94" y2="26.18" gradientUnits="userSpaceOnUse">
      <stop offset="0" stop-color="#e82fd1"/>
      <stop offset="1" stop-color="#b375e0"/>
    </linearGradient>
    <linearGradient id="Dégradé_sans_nom_76-2" data-name="Dégradé sans nom 76" x1="137" y1="57.04" x2="440.81" y2="39.74" xlink:href="#Dégradé_sans_nom_76"/>
    <linearGradient id="Dégradé_sans_nom_76-3" data-name="Dégradé sans nom 76" x1="137.1" y1="58.8" x2="440.91" y2="41.5" xlink:href="#Dégradé_sans_nom_76"/>
    <linearGradient id="Dégradé_sans_nom_76-4" data-name="Dégradé sans nom 76" x1="137.24" y1="61.33" x2="441.06" y2="44.03" xlink:href="#Dégradé_sans_nom_76"/>
    <linearGradient id="Dégradé_sans_nom_76-5" data-name="Dégradé sans nom 76" x1="137.38" y1="63.84" x2="441.2" y2="46.54" xlink:href="#Dégradé_sans_nom_76"/>
    <linearGradient id="Dégradé_sans_nom_76-6" data-name="Dégradé sans nom 76" x1="146.76" y1="61.35" x2="434.62" y2="44.95" gradientTransform="translate(3.51 -18.69) rotate(3.32)" xlink:href="#Dégradé_sans_nom_76"/>
    <linearGradient id="Dégradé_sans_nom_76-7" data-name="Dégradé sans nom 76" x1="137.48" y1="57.09" x2="441.78" y2="54.09" xlink:href="#Dégradé_sans_nom_76"/>
    <linearGradient id="Dégradé_sans_nom_76-8" data-name="Dégradé sans nom 76" x1="137.7" y1="69.35" x2="441.52" y2="52.04" xlink:href="#Dégradé_sans_nom_76"/>
    <linearGradient id="Dégradé_sans_nom_76-9" data-name="Dégradé sans nom 76" x1="137.78" y1="70.77" x2="441.6" y2="53.46" xlink:href="#Dégradé_sans_nom_76"/>
    <linearGradient id="Dégradé_sans_nom_27" data-name="Dégradé sans nom 27" x1="0" y1="51.25" x2="108.79" y2="51.25" gradientUnits="userSpaceOnUse">
      <stop offset="0" stop-color="#b375e0"/>
      <stop offset=".23" stop-color="#ba6add"/>
      <stop offset=".62" stop-color="#cf4fd7"/>
      <stop offset="1" stop-color="#e82fd1"/>
    </linearGradient>
  </defs>
  <g id="Calque_1-2" data-name="Calque 1">
    <path class="cls-1" d="M58.44,89.65c-.08.07-.15.14-.22.21.04-.2.11-.23.22-.21Z"/>
    <g>
      <path class="cls-2" d="M164.45,50.34c-1,1.81-2.54,3.26-4.61,4.37-2.07,1.11-4.65,1.66-7.72,1.66h-5.68v13.51h-9.17v-37.63h14.85c3,0,5.54.52,7.61,1.55,2.07,1.04,3.63,2.47,4.66,4.29,1.04,1.82,1.55,3.91,1.55,6.27,0,2.18-.5,4.17-1.5,5.98ZM155.34,47.85c.86-.82,1.29-1.98,1.29-3.48s-.43-2.66-1.29-3.48c-.86-.82-2.16-1.23-3.91-1.23h-4.98v9.43h4.98c1.75,0,3.06-.41,3.91-1.23Z"/>
      <path class="cls-4" d="M182.83,41.07c1.61-.95,3.39-1.42,5.36-1.42v9.7h-2.52c-2.29,0-4,.49-5.15,1.47-1.14.98-1.71,2.71-1.71,5.17v13.88h-9.17v-29.91h9.17v4.99c1.07-1.64,2.41-2.94,4.02-3.89Z"/>
      <path class="cls-6" d="M197.22,68.43c-2.34-1.25-4.18-3.04-5.52-5.36-1.34-2.32-2.01-5.04-2.01-8.15s.68-5.78,2.04-8.12c1.36-2.34,3.22-4.14,5.57-5.39,2.36-1.25,5-1.88,7.93-1.88s5.58.63,7.93,1.88c2.36,1.25,4.22,3.05,5.58,5.39,1.36,2.34,2.04,5.05,2.04,8.12s-.69,5.78-2.06,8.12c-1.38,2.34-3.25,4.14-5.63,5.39s-5.03,1.88-7.96,1.88-5.57-.63-7.91-1.88ZM209.61,60.44c1.23-1.29,1.85-3.13,1.85-5.52s-.6-4.23-1.8-5.52c-1.2-1.29-2.67-1.93-4.42-1.93s-3.27.63-4.45,1.9c-1.18,1.27-1.77,3.12-1.77,5.55s.58,4.23,1.74,5.52c1.16,1.29,2.62,1.93,4.37,1.93s3.24-.64,4.48-1.93Z"/>
      <path class="cls-5" d="M271.62,43.02c2.2,2.25,3.3,5.38,3.3,9.38v17.47h-9.11v-16.24c0-1.93-.51-3.42-1.53-4.48-1.02-1.05-2.42-1.58-4.21-1.58s-3.19.53-4.21,1.58c-1.02,1.05-1.53,2.55-1.53,4.48v16.24h-9.11v-16.24c0-1.93-.51-3.42-1.53-4.48-1.02-1.05-2.42-1.58-4.21-1.58s-3.19.53-4.21,1.58c-1.02,1.05-1.53,2.55-1.53,4.48v16.24h-9.17v-29.91h9.17v3.75c.93-1.25,2.14-2.24,3.64-2.98,1.5-.73,3.2-1.1,5.09-1.1,2.25,0,4.26.48,6.03,1.45s3.15,2.34,4.15,4.13c1.04-1.64,2.45-2.98,4.23-4.02,1.79-1.04,3.73-1.55,5.84-1.55,3.72,0,6.67,1.13,8.87,3.38Z"/>
      <path class="cls-8" d="M285.99,68.43c-2.34-1.25-4.18-3.04-5.52-5.36-1.34-2.32-2.01-5.04-2.01-8.15s.68-5.78,2.04-8.12c1.36-2.34,3.22-4.14,5.57-5.39,2.36-1.25,5-1.88,7.93-1.88s5.58.63,7.93,1.88c2.36,1.25,4.22,3.05,5.58,5.39,1.36,2.34,2.04,5.05,2.04,8.12s-.69,5.78-2.06,8.12c-1.38,2.34-3.25,4.14-5.63,5.39s-5.03,1.88-7.96,1.88-5.57-.63-7.91-1.88ZM298.37,60.44c1.23-1.29,1.85-3.13,1.85-5.52s-.6-4.23-1.8-5.52c-1.2-1.29-2.67-1.93-4.42-1.93s-3.27.63-4.45,1.9c-1.18,1.27-1.77,3.12-1.77,5.55s.58,4.23,1.74,5.52c1.16,1.29,2.62,1.93,4.37,1.93s3.24-.64,4.48-1.93Z"/>
      <path class="cls-7" d="M336.94,32.25v25.62c0,3.97-1.12,7.02-3.35,9.17-2.23,2.14-5.24,3.22-9.03,3.22s-7.15-1.13-9.54-3.38c-2.39-2.25-3.59-5.45-3.59-9.59h9.11c0,1.57.32,2.76.96,3.56.64.8,1.57,1.21,2.79,1.21,1.11,0,1.96-.36,2.57-1.07.61-.71.91-1.75.91-3.11v-25.62h9.17Z"/>
      <path class="cls-9" d="M348.97,68.43c-2.34-1.25-4.18-3.04-5.52-5.36-1.34-2.32-2.01-5.04-2.01-8.15s.68-5.78,2.04-8.12c1.36-2.34,3.22-4.14,5.57-5.39,2.36-1.25,5-1.88,7.93-1.88s5.58.63,7.93,1.88c2.36,1.25,4.22,3.05,5.58,5.39,1.36,2.34,2.04,5.05,2.04,8.12s-.69,5.78-2.06,8.12c-1.38,2.34-3.25,4.14-5.63,5.39s-5.03,1.88-7.96,1.88-5.57-.63-7.91-1.88ZM361.35,60.44c1.23-1.29,1.85-3.13,1.85-5.52s-.6-4.23-1.8-5.52c-1.2-1.29-2.67-1.93-4.42-1.93s-3.27.63-4.45,1.9c-1.18,1.27-1.77,3.12-1.77,5.55s.58,4.23,1.74,5.52c1.16,1.29,2.62,1.93,4.37,1.93s3.24-.64,4.48-1.93Z"/>
      <path class="cls-10" d="M405.87,39.97v29.91h-9.17v-4.07c-.93,1.32-2.19,2.39-3.78,3.19-1.59.8-3.35,1.21-5.28,1.21-2.29,0-4.31-.51-6.06-1.53-1.75-1.02-3.11-2.49-4.07-4.42s-1.45-4.2-1.45-6.81v-17.47h9.11v16.24c0,2,.52,3.56,1.55,4.66,1.04,1.11,2.43,1.66,4.18,1.66s3.2-.55,4.23-1.66c1.04-1.11,1.55-2.66,1.55-4.66v-16.24h9.17Z"/>
      <path class="cls-11" d="M424.57,41.07c1.61-.95,3.39-1.42,5.36-1.42v9.7h-2.52c-2.29,0-4,.49-5.15,1.47-1.14.98-1.71,2.71-1.71,5.17v13.88h-9.17v-29.91h9.17v4.99c1.07-1.64,2.41-2.94,4.02-3.89Z"/>
    </g>
    <g>
      <path class="cls-3" d="M84.49.49c11.24,2.34,15.06,9.7,17.15,20.11,3.02,14.98,4.61,30.41,7.14,45.49-.38,15.29-14.91,20.59-26.61,26.29-14.67,7.14-29.14,14.52-45.62,6.93-9.36-4.31-29.87-30.18-31.76-32.94-7.1-10.36-6.63-20.19,3.34-27.16,3.86-2.04,52.47-32.66,62.67-37.09,4.63-2.01,8.71-2.66,13.68-1.62Z"/>
      <path class="cls-1" d="M36.1,31.72c-1.18,0-2.14.96-2.14,2.14,0,.57.22,1.11.62,1.51s.94.63,1.51.63h4.22c2.3,0,4.31,1.46,5.02,3.65l2.3,7.13v.08l5.77,17.86c1.17,3.6,4.54,6.06,8.33,6.06h25.17c3.8,0,7.11-2.68,7.91-6.39l3.81-17.62c.8-3.7-2.1-7.29-5.89-7.29h-39.72c-1.1,0-2.11.33-2.97.88l-.65-2.02c-1.27-3.94-4.96-6.63-9.1-6.63h-4.2ZM53.04,43.77h39.72c1.16,0,1.94.97,1.7,2.1l-3.8,17.61c-.38,1.77-1.92,3.01-3.73,3.01h-25.17c-1.95,0-3.65-1.24-4.25-3.09l-5.77-17.87c-.3-.94.31-1.77,1.3-1.77h0ZM62.71,73.53c-2.08,0-3.82,1.74-3.82,3.82s1.74,3.82,3.82,3.82,3.82-1.73,3.82-3.82-1.74-3.82-3.82-3.82ZM83.48,73.53c-2.08,0-3.82,1.74-3.82,3.82s1.74,3.82,3.82,3.82,3.82-1.73,3.82-3.82-1.73-3.82-3.82-3.82Z"/>
      <path class="cls-1" d="M38.35,47.94h-16.94c-1.12,0-2.03-.91-2.03-2.03s.91-2.03,2.03-2.03h16.94c1.12,0,2.03.91,2.03,2.03s-.91,2.03-2.03,2.03Z"/>
      <path class="cls-1" d="M35.4,57.16h-16.94c-1.12,0-2.03-.91-2.03-2.03s.91-2.03,2.03-2.03h16.94c1.12,0,2.03.91,2.03,2.03s-.91,2.03-2.03,2.03Z"/>
      <path class="cls-1" d="M33.09,66.6h-16.94c-1.12,0-2.03-.91-2.03-2.03s.91-2.03,2.03-2.03h16.94c1.12,0,2.03.91,2.03,2.03s-.91,2.03-2.03,2.03Z"/>
    </g>
  </g>
</svg>